# AST/ASF file generated using VICON BodyLanguage
# -----------------------------------------------
:version 1.10
:name VICON
:units
  mass 1.0
  length 0.45
  angle deg
:documentation
   .ast/.asf automatically generated from VICON data using
   VICON BodyBuilder and BodyLanguage model FoxedUp or BRILLIANT.MOD
:root
   order TX TY TZ RX RY RZ
   axis XYZ
   position 0 0 0  
   orientation 0 0 0 
:bonedata
  begin
     id 1 
     name lhipjoint
     direction 0.610259 -0.730986 0.305356 
     length 2.50941 
     axis 0 0 0  XYZ
  end
  begin
     id 2 
     name lfemur
     direction 0.34202 -0.939693 0  
     length 7.48822  
     axis 0 0 20  XYZ
    dof rx ry rz
    limits (-160.0 20.0)
           (-70.0 70.0)
           (-60.0 70.0)
  end
  begin
     id 3 
     name ltibia
     direction 0.34202 -0.939693 0   
     length 7.60141   
     axis 0 0 20   XYZ
    dof rx
    limits (-10.0 170.0)
  end
  begin
     id 4 
     name lfoot
     direction 0.0673488 -0.185039 0.980421   
     length 2.04049   
     axis -90 7.62852e-016 20   XYZ
    dof rx rz
    limits (-45.0 90.0)
           (-70.0 20.0)
  end
  begin
     id 5 
     name ltoes
     direction 1.5356e-011 -4.21729e-011 1   
     length 1.02897   
     axis -90 7.62852e-016 20   XYZ
    dof rx
    limits (-90.0 20.0)
  end
  begin
     id 6 
     name rhipjoint
     direction -0.57612 -0.754205 0.315056   
     length 2.43216  
     axis 0 0 0  XYZ 
  end
  begin
     id 7 
     name rfemur
     direction -0.34202 -0.939693 0   
     length 7.42799   
     axis 0 0 -20   XYZ
    dof rx ry rz
    limits (-160.0 20.0)
           (-70.0 70.0)
           (-70.0 60.0)
  end
  begin
     id 8 
     name rtibia
     direction -0.34202 -0.939693 0   
     length 7.69484   
     axis 0 0 -20   XYZ
    dof rx
    limits (-10.0 170.0)
 end
 begin
     id 9 
     name rfoot
     direction -0.111837 -0.30727 0.945028   
     length 2.15769  
     axis -90 -7.62852e-016 -20   XYZ
    dof rx rz
    limits (-45.0 90.0)
           (-20.0 70.0)
  end
  begin
     id 10 
     name rtoes
     direction -1.53539e-011 -4.21878e-011 1   
     length 1.07391   
     axis -90 -7.62852e-016 -20   XYZ
    dof rx
    limits (-90.0 20.0)
  end
  begin
     id 11 
     name lowerback
     direction 0.00552624 0.990109 -0.140195   
     length 2.12403   
     axis 0 0 0   XYZ
    dof rx ry rz
    limits (-20.0 45.0)
           (-30.0 30.0)
           (-30.0 30.0)
  end
  begin
     id 12 
     name upperback
     direction 0.00361898 0.999976 -0.00584723   
     length 2.13232   
     axis 0 0 0   XYZ
    dof rx ry rz
    limits (-20.0 45.0)
           (-30.0 30.0)
           (-30.0 30.0)
  end
  begin
     id 13 
     name thorax
     direction -0.000331275 0.998253 0.0590847   
     length 2.17688   
     axis 0 0 0   XYZ
    dof rx ry rz
    limits (-20.0 45.0)
           (-30.0 30.0)
           (-30.0 30.0)
  end
  begin
     id 14 
     name lowerneck
     direction -0.0561561 0.979832 0.19177   
     length 1.64159   
     axis 0 0 0   XYZ
    dof rx ry rz
    limits (-20.0 45.0)
           (-30.0 30.0)
           (-30.0 30.0)
  end
  begin
     id 15 
     name upperneck
     direction 0.0827153 0.979385 -0.184293   
     length 1.68939   
     axis 0 0 0   XYZ
    dof rx ry rz
    limits (-20.0 45.0)
           (-30.0 30.0)
           (-30.0 30.0)
  end
  begin
     id 16
     name head
     direction 0.0278583 0.995936 -0.0856488  
     length 1.70207  
     axis 0 0 0   XYZ
    dof rx ry rz
    limits (-20.0 45.0)
           (-30.0 30.0)
           (-30.0 30.0)
  end
  begin
     id 17 
     name lclavicle
     direction 0.950993 0.301131 -0.0702275  
     length 3.41652  
     axis 0 0 0   XYZ
    dof ry rz
    limits (-20.0 10.0)
           (0.0 20.0)
  end
  begin
     id 18 
     name lhumerus
     direction 1 -4.48981e-011 -3.9662e-029   
     length 5.32955   
     axis 180 -30 -90   XYZ
    dof rx ry rz
    limits (-60.0 90.0)
           (-90.0 90.0)
           (-90.0 90.0)
  end
  begin
     id 19
     name lradius
     direction 1 -4.48925e-011 -9.0549e-027   
     length 3.69232   
     axis 180 -30 -90   XYZ
    dof rx
    limits (-10.0 170.0)
  end
  begin
     id 20
     name lwrist
     direction 1 -4.49007e-011 -1.49005e-026   
     length 1.84616   
     axis 9.0955e-015 90 90   XYZ
    dof ry
    limits (-180.0 0.0)
 end
  begin
     id 21 
     name lhand
     direction 1 -4.49016e-011 -2.98023e-026   
     length 0.536598   
     axis 1.90115e-014 90 90   XYZ
    dof rx rz
    limits (-90.0 90.0)
           (-45.0 45.0)
  end
  begin
     id 22 
     name lfingers
     direction 1 -4.48924e-011 -5.9578e-026   
     length 0.432619   
     axis 3.80223e-014 90 90   XYZ
    dof rx
    limits (0.0 90.0)
  end
  begin
     id 23
     name lthumb
     direction 0.707107 -6.34947e-011 0.707107   
     length 0.621157   
     axis -90 45 -3.84942e-014   XYZ
    dof rx rz
    limits (-45.0 45.0)
           (-45.0 45.0)
  end
  begin
     id 24 
     name rclavicle
     direction -0.955495 0.276497 -0.102848   
     length 3.36357  
     axis 0 0 0   XYZ 
    dof ry rz
    limits (-10.0 20.0)
           (-20.0 0.0)
  end
  begin
     id 25 
     name rhumerus
     direction -1 -4.48961e-011 3.30983e-027  
     length 5.23431   
     axis 180 30 90   XYZ
    dof rx ry rz
    limits (-90.0 60.0)
           (-90.0 90.0)
           (-90.0 90.0)
  end
  begin
     id 26 
     name rradius
     direction -1 -4.48965e-011 -6.63263e-027   
     length 3.55301   
     axis 180 30 90   XYZ
    dof rx
    limits (-10.0 170.0)
  end
  begin
     id 27 
     name rwrist
     direction -1 -4.48942e-011 -1.48958e-026   
     length 1.77651   
     axis 9.0955e-015 -90 -90   XYZ
    dof ry
    limits (-180.0 0.0)
  end
  begin
     id 28
     name rhand
     direction -1 -4.48977e-011 -2.97966e-026   
     length 0.772522   
     axis 1.90115e-014 -90 -90   XYZ
    dof rx rz
    limits (-90.0 90.0)
           (-45.0 45.0)
  end
  begin
     id 29
     name rfingers
     direction -1 -4.49135e-011 -5.96389e-026   
     length 0.622827   
     axis 3.80223e-014 -90 -90   XYZ
    dof rx
    limits (0.0 90.0)
  end
  begin
     id 30
     name rthumb
     direction -0.707107 -6.34969e-011 0.707107   
     length 0.894259   
     axis -90 -45 3.84942e-014   XYZ
    dof rx rz
    limits (-45.0 45.0)
           (-45.0 45.0)
  end
:hierarchy
  begin
    root lhipjoint rhipjoint lowerback
    lhipjoint lfemur
    lfemur ltibia
    ltibia lfoot
    lfoot ltoes
    rhipjoint rfemur
    rfemur rtibia
    rtibia rfoot
    rfoot rtoes
    lowerback upperback
    upperback thorax
    thorax lowerneck lclavicle rclavicle
    lowerneck upperneck
    upperneck head
    lclavicle lhumerus
    lhumerus lradius
    lradius lwrist
    lwrist lhand lthumb
    lhand lfingers
    rclavicle rhumerus
    rhumerus rradius
    rradius rwrist
    rwrist rhand rthumb
    rhand rfingers
  end

#!OML:ASF F:\VICON\USERDATA\INSTALL\rory3\rory3.ASF
:FULLY-SPECIFIED
:DEGREES
452
root -10.6299 17.8031 16.2666 339.84 -76.6765 -345.262
lowerback 11.7245 0.86014 -3.53169
upperback 0.655024 0.614583 -0.404294
thorax -5.92855 0.375915 1.46686
lowerneck -17.7121 -4.72554 -11.8863
upperneck 36.4788 -6.50408 6.41753
head 16.8384 -3.81829 3.5723
rclavicle -2.40514e-014 5.76476e-015
rhumerus -38.4223 -12.0229 -79.1205
rradius 34.3392
rwrist 3.81956
rhand -15.5541 9.0268
rfingers 7.12502
rthumb 10.6303 -20.6843
lclavicle -2.40514e-014 5.76476e-015
lhumerus -33.3288 2.86718 82.3274
lradius 40.8902
lwrist -1.04348
lhand -19.6817 25.1445
lfingers 7.12502
lthumb 6.6471 55.0202
rfemur -15.3291 -1.80619 15.2789
rtibia 59.5339
rfoot -11.2105 -2.29744
rtoes 0.754256
lfemur -4.65863 -7.91867 -25.2397
ltibia 16.9756
lfoot -2.7407 -13.1528
ltoes 6.63968
453
root -10.708 17.7918 16.2545 340.963 -75.8302 -346.29
lowerback 11.8218 0.778323 -3.62589
upperback 0.601758 0.493317 -0.337781
thorax -6.03462 0.322779 1.60929
lowerneck -17.8298 -4.60157 -11.7288
upperneck 36.5861 -6.24264 6.15296
head 16.8683 -3.72212 3.48
rclavicle -8.88785e-015 -1.55052e-014
rhumerus -38.3941 -11.7712 -79.2888
rradius 34.5846
rwrist 3.3143
rhand -16.0655 8.81587
rfingers 7.12502
rthumb 10.137 -20.9199
lclavicle -8.88785e-015 -1.55052e-014
lhumerus -33.1709 2.47007 82.4993
lradius 41.5364
lwrist -0.858779
lhand -19.1333 24.8926
lfingers 7.12502
lthumb 7.17648 54.7509
rfemur -15.8038 -1.0902 15.1025
rtibia 58.2381
rfoot -11.8849 -1.76654
rtoes 0.404361
lfemur -4.89586 -8.1876 -25.2091
ltibia 17.645
lfoot -3.12081 -13.5626
ltoes 8.24538
454
root -10.7858 17.7809 16.2403 341.637 -74.9338 -346.877
lowerback 11.9689 0.725084 -3.82685
upperback 0.524989 0.390985 -0.293201
thorax -6.19483 0.283084 1.78586
lowerneck -17.913 -4.45854 -11.5006
upperneck 36.7229 -5.95738 5.81494
head 16.8971 -3.61886 3.34755
rclavicle 4.3054e-014 -6.16232e-015
rhumerus -38.4301 -11.1911 -79.5942
rradius 34.8972
rwrist 2.16657
rhand -16.9273 8.45137
rfingers 7.12502
rthumb 9.30551 -21.3233
lclavicle 4.3054e-014 -6.16232e-015
lhumerus -33.1069 2.01386 82.7471
lradius 42.2285
lwrist -0.73962
lhand -19.0481 24.8628
lfingers 7.12502
lthumb 7.25876 54.7183
rfemur -16.1676 -0.149377 14.788
rtibia 56.7984
rfoot -12.4664 -1.00956
rtoes 1.06164
lfemur -5.12096 -8.53096 -25.274
ltibia 18.3077
lfoot -3.41987 -13.8535
ltoes 10.4678
455
root -10.8664 17.7713 16.2282 342.947 -74.0464 -348.162
lowerback 12.0474 0.650172 -3.77108
upperback 0.514098 0.300159 -0.229783
thorax -6.24489 0.239291 1.83658
lowerneck -17.9782 -4.34774 -11.3393
upperneck 36.7675 -5.77724 5.69476
head 16.9003 -3.53474 3.30291
rclavicle 2.05152e-015 1.39149e-014
rhumerus -38.4723 -10.7415 -79.8082
rradius 35.1377
rwrist 1.56345
rhand -17.3618 8.46035
rfingers 7.12502
rthumb 8.88626 -21.3325
lclavicle 2.05152e-015 1.39149e-014
lhumerus -33.0063 1.41771 83.0073
lradius 42.9284
lwrist -0.631192
lhand -19.3389 24.8016
lfingers 7.12502
lthumb 6.97801 54.6666
rfemur -16.3562 0.992431 14.6707
rtibia 55.1798
rfoot -12.995 -0.221541
rtoes 1.6676
lfemur -5.26015 -8.83522 -25.1189
ltibia 18.8776
lfoot -3.75248 -14.3906
ltoes 11.9458
456
root -10.9485 17.7675 16.2178 344.515 -73.0828 -349.627
lowerback 12.0055 0.511827 -3.57565
upperback 0.484586 0.150811 -0.158888
thorax -6.2429 0.16268 1.82676
lowerneck -18.0123 -4.24221 -11.3408
upperneck 36.8011 -5.61118 5.7274
head 16.9063 -3.45934 3.35364
rclavicle 9.72026e-015 1.61016e-014
rhumerus -38.5423 -10.4803 -79.8475
rradius 35.3682
rwrist 1.93863
rhand -17.0685 8.52148
rfingers 7.12502
rthumb 9.16924 -21.2592
lclavicle 9.72026e-015 1.61016e-014
lhumerus -32.9116 0.78367 83.2005
lradius 43.6636
lwrist -0.380729
lhand -19.5269 24.8288
lfingers 7.12502
lthumb 6.79655 54.6997
rfemur -16.5158 2.07929 14.5788
rtibia 53.4081
rfoot -13.6091 0.663199
rtoes 0.64412
lfemur -5.47033 -9.18988 -24.8684
ltibia 19.4068
lfoot -4.24669 -15.1509
ltoes 10.3938
457
root -11.0257 17.7683 16.2004 346 -71.9762 -350.874
lowerback 11.9481 0.360583 -3.48511
upperback 0.382262 -0.026391 -0.0369464
thorax -6.30863 0.078864 1.93451
lowerneck -17.9943 -4.1571 -11.4896
upperneck 36.8004 -5.40145 5.70578
head 16.881 -3.39343 3.41377
rclavicle 1.30452e-016 -6.55989e-015
rhumerus -38.6172 -10.6298 -79.59
rradius 35.5168
rwrist 2.98798
rhand -16.2766 8.6939
rfingers 7.12502
rthumb 9.93328 -21.0517
lclavicle 1.30452e-016 -6.55989e-015
lhumerus -32.8584 0.376511 83.4396
lradius 44.4177
lwrist -0.361808
lhand -19.3907 24.7665
lfingers 7.12502
lthumb 6.92804 54.6332
rfemur -16.7544 3.14789 14.3975
rtibia 51.49
rfoot -14.0821 1.80803
rtoes -0.783393
lfemur -5.85658 -9.54702 -24.6001
ltibia 19.9272
lfoot -4.62182 -16.0913
ltoes 8.91763
